<?xml version="1.0" encoding="UTF-8"?>
<svg xmlns="http://www.w3.org/2000/svg" version="1.1" viewBox="0 0 512 512">
  <!-- Generator: Adobe Illustrator 29.4.0, SVG Export Plug-In . SVG Version: 2.1.0 Build 152)  -->
  <defs>
    <style>
      .st0 {
        fill: #2b374c;
      }

      .st0, .st1 {
        fill-rule: evenodd;
      }

      .st2, .st1 {
        fill: #f4bf2a;
      }

      .st3 {
        display: none;
      }
    </style>
  </defs>
  <g id="Layer_1">
    <path class="st0" d="M256,49.59c112.49,0,204.53,92.74,204.53,206.08s-92.04,206.08-204.53,206.08S51.47,369.02,51.47,255.68,143.51,49.58,256,49.58"/>
    <path class="st1" d="M511.67,255.68c0-51.53-15.34-103.05-46.02-146.84v-61.82c0-2.58-2.56-2.58-2.56-2.58h-61.36c-86.93-59.25-201.98-59.25-288.9,0H46.35v64.4c-61.36,87.58-61.36,206.07,0,293.66v61.83c0,2.57,2.56,2.57,2.56,2.57h61.36c86.93,59.25,201.98,59.25,291.46,0h61.36c2.56,0,2.56-2.58,2.56-5.15v-61.82c30.68-41.21,46.02-92.74,46.02-144.26M33.57,255.66c0-123.65,99.71-224.1,222.43-224.1s222.43,100.46,222.43,224.1c0,123.65-99.71,224.12-222.43,224.12S33.57,379.3,33.57,255.67"/>
  </g>
  <g id="Layer_2">
    <path class="st2" d="M396.15,375.31l-20.5,20.5c-5.63,5.6-14.72,5.6-20.35,0l-171.47-171.18c-4.69,1.36-9.55,2.09-14.43,2.16-31.88-.02-57.71-25.89-57.69-57.77,0-6.37,1.06-12.7,3.13-18.72l36.66,36.66,7.65-7.65,20.5-20.5,7.65-7.65-36.66-36.66c30.15-10.36,63,5.68,73.36,35.84,2.07,6.02,3.13,12.35,3.13,18.72-.08,4.89-.81,9.74-2.16,14.43l171.18,171.47c5.6,5.63,5.6,14.72,0,20.35M115.85,354.96c-5.6,5.63-5.6,14.72,0,20.35l20.5,20.5c5.63,5.6,14.72,5.6,20.35,0l78.95-78.8-40.85-40.85M371.47,111.33l-57.73,28.87v28.87l-31.32,31.32,28.87,28.87,31.32-31.32h28.87l28.87-57.73-28.87-28.87Z"/>
  </g>
  <g id="Layer_3" class="st3">
    <path class="st2" d="M256.03,306.88c-28.29,0-51.22-22.93-51.22-51.22s22.93-51.22,51.22-51.22,51.22,22.93,51.22,51.22-22.93,51.22-51.22,51.22M364.76,269.86c.59-4.68,1.02-9.37,1.02-14.19s-.44-9.66-1.02-14.63l30.88-23.85c2.78-2.2,3.51-6.15,1.76-9.37l-29.27-50.63c-1.76-3.22-5.71-4.54-8.93-3.22l-36.44,14.63c-7.61-5.71-15.51-10.68-24.73-14.34l-5.41-38.78c-.59-3.51-3.66-6.15-7.32-6.15h-58.53c-3.66,0-6.73,2.63-7.32,6.15l-5.41,38.78c-9.22,3.66-17.12,8.63-24.73,14.34l-36.44-14.63c-3.22-1.32-7.17,0-8.93,3.22l-29.27,50.63c-1.9,3.22-1.02,7.17,1.76,9.37l30.88,23.85c-.59,4.98-1.02,9.8-1.02,14.63s.44,9.51,1.02,14.19l-30.88,24.29c-2.78,2.2-3.66,6.15-1.76,9.37l29.27,50.63c1.76,3.22,5.71,4.39,8.93,3.22l36.44-14.78c7.61,5.85,15.51,10.83,24.73,14.49l5.41,38.78c.59,3.51,3.66,6.15,7.32,6.15h58.53c3.66,0,6.73-2.63,7.32-6.15l5.41-38.78c9.22-3.8,17.12-8.63,24.73-14.49l36.44,14.78c3.22,1.17,7.17,0,8.93-3.22l29.27-50.63c1.76-3.22,1.02-7.17-1.76-9.37l-30.88-24.29Z"/>
  </g>
</svg>